<?xml version="1.0" standalone="no"?>
<!DOCTYPE svg PUBLIC "-//W3C//DTD SVG 20010904//EN"
 "http://www.w3.org/TR/2001/REC-SVG-20010904/DTD/svg10.dtd">
<svg version="1.0" xmlns="http://www.w3.org/2000/svg"
 width="1787.000000pt" height="2048.000000pt" viewBox="0 0 1787.000000 2048.000000"
 preserveAspectRatio="xMidYMid meet">

<g transform="translate(0.000000,2048.000000) scale(0.100000,-0.100000)"
fill="#000000" stroke="none">
<path d="M10019 20398 c-23 -46 -176 -348 -341 -673 -164 -324 -412 -816 -551
-1092 l-252 -503 -135 0 c-257 0 -811 -39 -1065 -76 -16 -2 -61 -8 -100 -13
-61 -8 -376 -62 -445 -76 -836 -168 -1621 -436 -2285 -779 -466 -241 -936
-551 -1365 -900 -74 -60 -153 -126 -175 -145 -22 -20 -72 -63 -110 -96 -124
-108 -488 -450 -580 -546 -521 -543 -856 -953 -1223 -1499 -368 -546 -648
-1094 -861 -1686 -148 -412 -292 -953 -361 -1359 -5 -27 -15 -88 -24 -135 -8
-47 -18 -110 -22 -140 -4 -30 -8 -62 -9 -70 -65 -461 -88 -743 -107 -1277 -10
-306 -3 -741 17 -1023 9 -127 17 -226 25 -295 19 -155 29 -226 65 -455 135
-852 476 -1744 1063 -2780 162 -286 379 -636 477 -770 69 -95 100 -130 113
-130 6 0 12 4 12 9 0 6 34 83 76 173 102 217 122 262 299 648 304 663 476
1015 570 1165 52 82 55 91 39 100 -37 20 -84 80 -123 154 -112 216 -281 733
-384 1176 -52 224 -133 656 -152 810 -18 150 -26 213 -35 288 -74 587 -66
1302 20 1872 6 39 12 81 14 95 25 188 119 587 205 872 164 543 464 1199 801
1753 105 172 314 483 417 620 48 65 97 129 108 144 87 117 292 349 450 510
387 394 700 632 1241 944 44 26 83 47 86 47 3 0 46 22 96 50 113 62 421 208
612 290 655 281 1562 563 1672 521 49 -18 44 -39 -48 -233 -147 -311 -283
-597 -355 -747 -38 -79 -69 -145 -69 -146 0 -2 -40 -87 -90 -190 -49 -103 -90
-188 -90 -190 0 -1 -35 -76 -79 -166 -43 -90 -120 -251 -170 -356 -211 -445
-276 -584 -329 -693 -30 -63 -69 -146 -87 -185 -18 -38 -59 -126 -92 -195 -33
-69 -100 -208 -148 -310 -103 -218 -268 -564 -335 -705 -86 -181 -241 -507
-332 -700 -50 -104 -134 -282 -188 -395 -54 -113 -116 -243 -138 -290 -83
-177 -145 -308 -187 -395 -121 -252 -275 -577 -275 -579 0 -2 -35 -77 -79
-167 -43 -90 -118 -247 -166 -349 -48 -102 -129 -273 -180 -380 -51 -107 -116
-244 -144 -303 -28 -60 -97 -204 -152 -320 -56 -117 -141 -295 -189 -397 -48
-102 -111 -234 -140 -295 -29 -60 -67 -141 -85 -180 -18 -38 -62 -131 -97
-205 -36 -74 -105 -218 -153 -320 -48 -102 -117 -246 -152 -320 -36 -74 -91
-191 -123 -260 -32 -69 -79 -167 -104 -218 -25 -51 -46 -95 -46 -97 0 -3 -63
-136 -299 -629 -39 -81 -71 -149 -71 -151 0 -1 -33 -72 -74 -156 -92 -194
-227 -477 -346 -729 -107 -227 -156 -329 -290 -610 -106 -223 -264 -555 -328
-690 -76 -161 -139 -295 -189 -400 -83 -172 -244 -512 -338 -710 -205 -433
-281 -594 -351 -738 -41 -85 -74 -156 -74 -158 0 -2 -21 -46 -46 -96 -25 -51
-72 -149 -104 -218 -32 -69 -85 -182 -119 -252 -33 -70 -79 -166 -100 -213
l-40 -85 1848 0 1847 0 49 113 c26 61 65 150 86 197 36 83 74 170 329 755 67
154 137 314 155 355 18 41 56 129 85 195 29 66 65 149 81 185 63 144 254 580
284 650 88 205 132 305 180 415 29 66 136 311 238 545 179 411 314 721 534
1225 58 132 125 287 150 345 24 58 61 141 80 185 20 44 43 98 53 120 10 22 33
76 53 120 19 44 53 121 74 170 22 50 64 147 94 217 l54 128 1778 0 1777 0 0
-635 c0 -349 3 -635 8 -635 4 0 57 41 117 91 61 50 137 112 170 139 142 116
524 426 564 459 24 20 112 91 195 159 83 68 207 169 275 225 69 56 164 134
211 172 48 39 134 108 191 155 57 46 113 91 123 100 11 8 35 29 55 45 36 31
59 49 227 185 51 41 136 111 190 155 54 44 150 123 214 175 64 52 172 140 239
195 192 157 224 182 263 212 21 15 38 33 38 38 0 6 -208 215 -462 465 -254
250 -881 871 -1393 1380 -511 509 -990 983 -1063 1055 l-132 129 0 -637 0
-637 -1090 0 -1090 0 9 23 c5 12 61 139 126 282 64 143 165 366 222 495 58
129 155 345 215 480 61 135 148 328 193 430 46 102 115 257 155 345 40 88 89
198 110 245 21 47 61 137 90 200 29 63 67 149 85 190 18 41 65 147 105 235 40
88 101 225 137 305 35 80 75 168 88 195 13 28 71 158 130 290 119 265 184 410
335 745 55 124 118 263 138 310 l37 85 3 -1671 2 -1671 183 -174 c100 -95 259
-248 352 -339 94 -91 316 -304 495 -475 179 -170 401 -384 495 -475 321 -311
650 -628 672 -646 23 -20 371 -356 665 -642 97 -94 182 -172 187 -172 8 0 11
1056 11 3561 l0 3561 33 -7 c124 -27 323 -149 482 -294 71 -65 303 -298 350
-351 22 -25 72 -81 111 -125 310 -351 649 -836 914 -1310 247 -441 477 -1016
615 -1540 8 -27 22 -84 33 -125 19 -71 48 -201 78 -355 8 -38 25 -139 39 -225
24 -148 31 -199 54 -370 31 -233 43 -511 38 -936 -4 -406 -12 -550 -38 -759
-51 -413 -101 -674 -205 -1065 -127 -483 -347 -1022 -606 -1486 -453 -811
-1115 -1572 -1842 -2117 -256 -192 -398 -289 -626 -424 -148 -88 -415 -233
-482 -262 -24 -10 -92 -42 -153 -71 -232 -110 -654 -266 -945 -349 -281 -81
-624 -154 -915 -195 -99 -15 -222 -33 -273 -41 -179 -29 -396 -38 -807 -32
-220 3 -449 10 -510 16 -251 24 -328 33 -495 57 -504 72 -965 180 -1425 336
-377 127 -655 257 -899 420 -48 33 -92 56 -96 51 -4 -4 -48 -93 -98 -198 -49
-104 -155 -327 -235 -495 -80 -168 -186 -393 -237 -500 -51 -107 -142 -298
-201 -424 -60 -126 -112 -238 -114 -250 -4 -17 7 -29 57 -61 232 -146 601
-297 1027 -420 344 -98 971 -235 1356 -295 72 -11 155 -24 185 -30 105 -18
185 -30 275 -40 50 -6 122 -15 160 -20 39 -5 115 -14 170 -20 55 -6 123 -15
150 -20 123 -24 685 -58 1030 -63 204 -2 696 17 835 32 47 5 126 12 175 15
163 10 625 78 780 116 22 5 83 19 135 31 820 183 1669 535 2495 1032 131 79
474 302 590 384 197 138 426 311 546 412 37 31 101 85 144 121 329 273 696
635 976 960 812 945 1405 2071 1764 3350 154 547 267 1171 315 1730 25 299 30
396 36 675 7 350 -10 812 -41 1084 -3 25 -7 71 -11 101 -7 76 -23 194 -34 260
-5 30 -17 100 -25 155 -58 370 -173 832 -310 1240 -57 169 -170 472 -206 552
-11 23 -19 44 -19 47 0 3 -11 29 -24 58 -13 29 -54 121 -91 203 -333 739 -822
1505 -1370 2144 -157 184 -238 276 -265 303 -14 15 -64 69 -110 121 -98 111
-414 425 -550 548 -216 195 -492 413 -690 546 -105 70 -327 210 -384 243 -17
9 -69 40 -116 67 -47 27 -179 103 -294 168 -228 129 -280 168 -296 223 -6 24
-10 602 -10 1685 l0 1647 -1480 0 -1480 0 -41 -82z"/>
<path d="M13064 6872 c-16 -15 -169 -141 -414 -342 -371 -304 -752 -617 -840
-690 -91 -77 -222 -184 -365 -300 -37 -30 -76 -62 -87 -72 -10 -9 -48 -40 -84
-70 -36 -29 -112 -91 -169 -138 -161 -133 -462 -380 -530 -435 -34 -27 -86
-70 -115 -95 -93 -79 -134 -113 -274 -225 l-137 -110 5 -95 c3 -52 6 -148 6
-212 l0 -118 1515 0 1515 0 0 1460 c0 803 -1 1460 -3 1460 -2 0 -12 -8 -23
-18z"/>
</g>
</svg>
